<svg width="191" height="17" viewBox="0 0 191 17" fill="none" xmlns="http://www.w3.org/2000/svg">
<path d="M5.9668 3.14492V12.9199H3.4168V3.14492H-0.000203121V1.05392H9.3838V3.14492H5.9668ZM10.8902 0.339922H13.4062V5.74592H13.5082C13.6102 5.49659 13.7348 5.26425 13.8822 5.04892C14.0295 4.83359 14.2052 4.64659 14.4092 4.48792C14.6245 4.31792 14.8682 4.18759 15.1402 4.09692C15.4235 3.99492 15.7408 3.94392 16.0922 3.94392C16.5115 3.94392 16.8968 4.01759 17.2482 4.16492C17.5995 4.30092 17.8998 4.51059 18.1492 4.79392C18.3985 5.07726 18.5912 5.42292 18.7272 5.83092C18.8745 6.23892 18.9482 6.70925 18.9482 7.24192V12.9199H16.4322V7.58192C16.4322 6.44859 15.9392 5.88192 14.9532 5.88192C14.7605 5.88192 14.5678 5.91025 14.3752 5.96692C14.1938 6.01225 14.0295 6.09159 13.8822 6.20492C13.7348 6.30692 13.6158 6.43726 13.5252 6.59592C13.4458 6.75459 13.4062 6.94159 13.4062 7.15692V12.9199H10.8902V0.339922ZM25.3165 13.1239C23.8432 13.1239 22.7268 12.7159 21.9675 11.8999C21.2082 11.0839 20.8285 9.97326 20.8285 8.56792C20.8285 7.85392 20.9248 7.21359 21.1175 6.64692C21.3215 6.06892 21.6048 5.58159 21.9675 5.18492C22.3415 4.77692 22.7892 4.47092 23.3105 4.26692C23.8432 4.05159 24.4382 3.94392 25.0955 3.94392C25.7528 3.94392 26.3422 4.05159 26.8635 4.26692C27.3848 4.47092 27.8268 4.76559 28.1895 5.15092C28.5522 5.53626 28.8298 6.00659 29.0225 6.56192C29.2265 7.10592 29.3285 7.71792 29.3285 8.39792V9.14592H23.3275V9.29892C23.3275 9.86559 23.5032 10.3246 23.8545 10.6759C24.2058 11.0159 24.7215 11.1859 25.4015 11.1859C25.9228 11.1859 26.3705 11.0896 26.7445 10.8969C27.1185 10.6929 27.4415 10.4266 27.7135 10.0979L29.0735 11.5769C28.7335 11.9963 28.2575 12.3589 27.6455 12.6649C27.0335 12.9709 26.2572 13.1239 25.3165 13.1239ZM25.1125 5.74592C24.5685 5.74592 24.1322 5.91592 23.8035 6.25592C23.4862 6.58459 23.3275 7.03226 23.3275 7.59892V7.73492H26.8635V7.59892C26.8635 7.02092 26.7048 6.56759 26.3875 6.23892C26.0815 5.91025 25.6565 5.74592 25.1125 5.74592ZM41.7252 12.9199V1.05392H49.5962V3.14492H44.2752V5.86492H49.0352V7.95592H44.2752V12.9199H41.7252ZM56.2026 3.02592C55.6359 3.02592 55.2393 2.91259 55.0126 2.68592C54.7973 2.44792 54.6896 2.16459 54.6896 1.83592V1.34292C54.6896 1.00292 54.7973 0.719588 55.0126 0.492922C55.2393 0.266255 55.6359 0.152921 56.2026 0.152921C56.7693 0.152921 57.1603 0.266255 57.3756 0.492922C57.6023 0.719588 57.7156 1.00292 57.7156 1.34292V1.83592C57.7156 2.16459 57.6023 2.44792 57.3756 2.68592C57.1603 2.91259 56.7693 3.02592 56.2026 3.02592ZM52.1566 10.9649H54.9446V6.10292H52.1566V4.14792H57.4606V10.9649H60.0446V12.9199H52.1566V10.9649ZM61.857 12.9199V4.14792H64.373V5.74592H64.475C64.577 5.49659 64.7016 5.26425 64.849 5.04892C64.9963 4.83359 65.172 4.64659 65.376 4.48792C65.5913 4.31792 65.835 4.18759 66.107 4.09692C66.3903 3.99492 66.7076 3.94392 67.059 3.94392C67.4783 3.94392 67.8636 4.01759 68.215 4.16492C68.5663 4.30092 68.8666 4.51059 69.116 4.79392C69.3653 5.07726 69.558 5.42292 69.694 5.83092C69.8413 6.23892 69.915 6.70925 69.915 7.24192V12.9199H67.399V7.58192C67.399 6.44859 66.906 5.88192 65.92 5.88192C65.7273 5.88192 65.5346 5.91025 65.342 5.96692C65.1606 6.01225 64.9963 6.09159 64.849 6.20492C64.7016 6.30692 64.5826 6.43726 64.492 6.59592C64.4126 6.75459 64.373 6.94159 64.373 7.15692V12.9199H61.857ZM79.2243 12.9199C78.703 12.9199 78.2836 12.7896 77.9663 12.5289C77.649 12.2569 77.462 11.8716 77.4053 11.3729H77.3203C77.1616 11.9509 76.8443 12.3873 76.3683 12.6819C75.9036 12.9766 75.3313 13.1239 74.6513 13.1239C73.8013 13.1239 73.1156 12.8973 72.5943 12.4439C72.0843 11.9793 71.8293 11.3333 71.8293 10.5059C71.8293 9.58792 72.1636 8.90792 72.8323 8.46592C73.501 8.02392 74.4813 7.80292 75.7733 7.80292H77.1843V7.36092C77.1843 6.83959 77.0596 6.44859 76.8103 6.18792C76.5723 5.91592 76.1643 5.77992 75.5863 5.77992C75.0536 5.77992 74.623 5.88192 74.2943 6.08592C73.9656 6.28992 73.6823 6.55626 73.4443 6.88492L72.0673 5.66092C72.362 5.16225 72.821 4.75425 73.4443 4.43692C74.079 4.10826 74.8893 3.94392 75.8753 3.94392C77.0766 3.94392 78.0116 4.22159 78.6803 4.77692C79.3603 5.32092 79.7003 6.14825 79.7003 7.25892V11.1009H80.6693V12.9199H79.2243ZM75.6033 11.4749C76.0453 11.4749 76.4193 11.3673 76.7253 11.1519C77.0313 10.9366 77.1843 10.6249 77.1843 10.2169V9.16292H75.8413C74.81 9.16292 74.2943 9.50859 74.2943 10.1999V10.5399C74.2943 10.8459 74.4133 11.0783 74.6513 11.2369C74.8893 11.3956 75.2066 11.4749 75.6033 11.4749ZM82.2437 12.9199V4.14792H84.7597V5.74592H84.8617C84.9637 5.49659 85.0883 5.26425 85.2357 5.04892C85.383 4.83359 85.5587 4.64659 85.7627 4.48792C85.978 4.31792 86.2217 4.18759 86.4937 4.09692C86.777 3.99492 87.0943 3.94392 87.4457 3.94392C87.865 3.94392 88.2503 4.01759 88.6017 4.16492C88.953 4.30092 89.2533 4.51059 89.5027 4.79392C89.752 5.07726 89.9447 5.42292 90.0807 5.83092C90.228 6.23892 90.3017 6.70925 90.3017 7.24192V12.9199H87.7857V7.58192C87.7857 6.44859 87.2927 5.88192 86.3067 5.88192C86.114 5.88192 85.9213 5.91025 85.7287 5.96692C85.5473 6.01225 85.383 6.09159 85.2357 6.20492C85.0883 6.30692 84.9693 6.43726 84.8787 6.59592C84.7993 6.75459 84.7597 6.94159 84.7597 7.15692V12.9199H82.2437ZM96.789 13.1239C96.0977 13.1239 95.4744 13.0219 94.919 12.8179C94.375 12.6026 93.9104 12.2966 93.525 11.8999C93.151 11.5033 92.862 11.0216 92.658 10.4549C92.454 9.88826 92.352 9.24792 92.352 8.53392C92.352 7.81992 92.454 7.17959 92.658 6.61292C92.862 6.04625 93.151 5.56459 93.525 5.16792C93.9104 4.77125 94.375 4.47092 94.919 4.26692C95.4744 4.05159 96.092 3.94392 96.772 3.94392C97.7354 3.94392 98.506 4.14226 99.084 4.53892C99.6734 4.92425 100.121 5.43992 100.427 6.08592L98.489 7.13992C98.3304 6.79992 98.1207 6.51659 97.86 6.28992C97.6107 6.06325 97.248 5.94992 96.772 5.94992C96.194 5.94992 95.7464 6.11992 95.429 6.45992C95.123 6.78859 94.97 7.24192 94.97 7.81992V9.24792C94.97 9.82592 95.123 10.2849 95.429 10.6249C95.7464 10.9536 96.2054 11.1179 96.806 11.1179C97.2934 11.1179 97.673 11.0046 97.945 10.7779C98.2284 10.5513 98.4664 10.2566 98.659 9.89392L100.563 10.9819C100.246 11.6279 99.781 12.1493 99.169 12.5459C98.5684 12.9313 97.775 13.1239 96.789 13.1239ZM106.863 13.1239C105.39 13.1239 104.274 12.7159 103.514 11.8999C102.755 11.0839 102.375 9.97326 102.375 8.56792C102.375 7.85392 102.472 7.21359 102.664 6.64692C102.868 6.06892 103.152 5.58159 103.514 5.18492C103.888 4.77692 104.336 4.47092 104.857 4.26692C105.39 4.05159 105.985 3.94392 106.642 3.94392C107.3 3.94392 107.889 4.05159 108.41 4.26692C108.932 4.47092 109.374 4.76559 109.736 5.15092C110.099 5.53626 110.377 6.00659 110.569 6.56192C110.773 7.10592 110.875 7.71792 110.875 8.39792V9.14592H104.874V9.29892C104.874 9.86559 105.05 10.3246 105.401 10.6759C105.753 11.0159 106.268 11.1859 106.948 11.1859C107.47 11.1859 107.917 11.0896 108.291 10.8969C108.665 10.6929 108.988 10.4266 109.26 10.0979L110.62 11.5769C110.28 11.9963 109.804 12.3589 109.192 12.6649C108.58 12.9709 107.804 13.1239 106.863 13.1239ZM106.659 5.74592C106.115 5.74592 105.679 5.91592 105.35 6.25592C105.033 6.58459 104.874 7.03226 104.874 7.59892V7.73492H108.41V7.59892C108.41 7.02092 108.252 6.56759 107.934 6.23892C107.628 5.91025 107.203 5.74592 106.659 5.74592ZM125.023 15.2659V-7.89762e-05H130.531V1.68292H127.046V13.5829H130.531V15.2659H125.023ZM190.161 -7.89762e-05V15.2659H184.653V13.5829H188.138V1.68292H184.653V-7.89762e-05H190.161Z" fill="#16A34A"/>
<path d="M139.959 12.9199L139.058 9.75792H135.284L134.383 12.9199H132.445L135.913 1.05392H138.514L141.982 12.9199H139.959ZM137.239 2.97492H137.103L135.641 8.17692H138.701L137.239 2.97492ZM151.989 13.8719C151.989 14.7786 151.609 15.4473 150.85 15.8779C150.09 16.3086 148.934 16.5239 147.382 16.5239C146.622 16.5239 145.982 16.4729 145.461 16.3709C144.951 16.2803 144.531 16.1443 144.203 15.9629C143.885 15.7816 143.653 15.5606 143.506 15.2999C143.37 15.0393 143.302 14.7446 143.302 14.4159C143.302 13.9399 143.432 13.5659 143.693 13.2939C143.965 13.0333 144.344 12.8406 144.832 12.7159V12.5459C144.537 12.4326 144.299 12.2739 144.118 12.0699C143.948 11.8659 143.863 11.5996 143.863 11.2709C143.863 10.8403 144.01 10.5173 144.305 10.3019C144.599 10.0753 144.979 9.90526 145.444 9.79192V9.70692C144.911 9.45759 144.497 9.10625 144.203 8.65292C143.908 8.19959 143.761 7.65559 143.761 7.02092C143.761 6.55626 143.846 6.13692 144.016 5.76292C144.186 5.37759 144.424 5.05459 144.73 4.79392C145.047 4.52192 145.421 4.31225 145.852 4.16492C146.294 4.01759 146.787 3.94392 147.331 3.94392C147.943 3.94392 148.492 4.04026 148.98 4.23292V3.94392C148.98 3.60392 149.076 3.32059 149.269 3.09392C149.461 2.86725 149.756 2.75392 150.153 2.75392H151.751V4.21592H149.711V4.62392C150.096 4.88459 150.391 5.21892 150.595 5.62692C150.799 6.02359 150.901 6.48825 150.901 7.02092C150.901 7.48559 150.816 7.91059 150.646 8.29592C150.476 8.66992 150.232 8.99292 149.915 9.26492C149.609 9.52559 149.235 9.72959 148.793 9.87692C148.362 10.0129 147.875 10.0809 147.331 10.0809C146.945 10.0809 146.583 10.0469 146.243 9.97892C146.039 10.0356 145.835 10.1319 145.631 10.2679C145.427 10.4039 145.325 10.5909 145.325 10.8289C145.325 11.1009 145.455 11.2709 145.716 11.3389C145.976 11.4069 146.299 11.4409 146.685 11.4409H148.657C149.835 11.4409 150.685 11.6676 151.207 12.1209C151.728 12.5629 151.989 13.1466 151.989 13.8719ZM150.255 13.9909C150.255 13.6963 150.136 13.4583 149.898 13.2769C149.66 13.1069 149.229 13.0219 148.606 13.0219H145.563C145.132 13.2259 144.917 13.5546 144.917 14.0079C144.917 14.3366 145.053 14.6199 145.325 14.8579C145.608 15.0959 146.073 15.2149 146.719 15.2149H148.096C148.798 15.2149 149.331 15.1073 149.694 14.8919C150.068 14.6879 150.255 14.3876 150.255 13.9909ZM147.331 8.80592C147.931 8.80592 148.373 8.66425 148.657 8.38092C148.94 8.09759 149.082 7.71792 149.082 7.24192V6.78292C149.082 6.30692 148.94 5.92725 148.657 5.64392C148.373 5.36059 147.931 5.21892 147.331 5.21892C146.73 5.21892 146.288 5.36059 146.005 5.64392C145.721 5.92725 145.58 6.30692 145.58 6.78292V7.24192C145.58 7.71792 145.721 8.09759 146.005 8.38092C146.288 8.66425 146.73 8.80592 147.331 8.80592ZM157.779 13.1239C157.111 13.1239 156.51 13.0163 155.977 12.8009C155.445 12.5856 154.997 12.2796 154.634 11.8829C154.272 11.4863 153.994 11.0103 153.801 10.4549C153.609 9.88826 153.512 9.25359 153.512 8.55092C153.512 7.84826 153.609 7.21359 153.801 6.64692C154.005 6.08025 154.283 5.59859 154.634 5.20192C154.997 4.79392 155.433 4.48226 155.943 4.26692C156.453 4.05159 157.02 3.94392 157.643 3.94392C158.255 3.94392 158.811 4.05159 159.309 4.26692C159.808 4.47092 160.233 4.76559 160.584 5.15092C160.936 5.53626 161.202 5.99526 161.383 6.52792C161.576 7.06059 161.672 7.64992 161.672 8.29592V8.99292H155.382V9.28192C155.382 9.97325 155.598 10.5399 156.028 10.9819C156.459 11.4126 157.054 11.6279 157.813 11.6279C158.38 11.6279 158.862 11.5089 159.258 11.2709C159.666 11.0216 159.995 10.6929 160.244 10.2849L161.4 11.3049C161.106 11.8149 160.652 12.2456 160.04 12.5969C159.44 12.9483 158.686 13.1239 157.779 13.1239ZM157.643 5.35492C157.315 5.35492 157.009 5.41159 156.725 5.52492C156.453 5.63825 156.215 5.80259 156.011 6.01792C155.819 6.22192 155.666 6.46559 155.552 6.74892C155.439 7.03225 155.382 7.34392 155.382 7.68392V7.80292H159.785V7.63292C159.785 6.94159 159.587 6.39192 159.19 5.98392C158.805 5.56459 158.289 5.35492 157.643 5.35492ZM164.114 12.9199V4.14792H165.967V5.64392H166.052C166.142 5.41725 166.256 5.20192 166.392 4.99792C166.539 4.78259 166.715 4.60125 166.919 4.45392C167.123 4.29525 167.361 4.17059 167.633 4.07992C167.905 3.98926 168.222 3.94392 168.585 3.94392C169.469 3.94392 170.183 4.23292 170.727 4.81092C171.271 5.38892 171.543 6.21059 171.543 7.27592V12.9199H169.69V7.54792C169.69 6.15392 169.083 5.45692 167.871 5.45692C167.633 5.45692 167.4 5.49092 167.174 5.55892C166.947 5.61559 166.743 5.70625 166.562 5.83092C166.38 5.95559 166.233 6.11425 166.12 6.30692C166.018 6.49959 165.967 6.72059 165.967 6.96992V12.9199H164.114ZM178.506 12.9199C177.735 12.9199 177.169 12.7159 176.806 12.3079C176.443 11.8886 176.262 11.3503 176.262 10.6929V5.64392H173.559V4.14792H175.48C175.809 4.14792 176.041 4.08559 176.177 3.96092C176.313 3.82492 176.381 3.58692 176.381 3.24692V1.05392H178.115V4.14792H181.855V5.64392H178.115V11.4239H181.855V12.9199H178.506Z" fill="#5E6267"/>
</svg>
